# xmcd CD database file
#
# Track frame offsets:
#	150
#	32487
#	59766
#	65281
#	93179
#	112695
#	146902
#	168241
#	195214
#	203641
#
# Disc length: 2945 seconds
#
# Revision: 0
# Processed by: cddbd v1.5.2PL0 Copyright (c) Steve Scherf et al.
# Submitted via: CDex 1.51
#
DISCID=7d0b7f0a
DTITLE=Gavin Barras - The Family Tree
DYEAR=2017
DGENRE=Jazz
TTITLE0=Swingin' Charlie
TTITLE1=Waltz for my Wife
TTITLE2=Sunny Side
TTITLE3=CBGB's
TTITLE4=Family Tree
TTITLE5=Steve's Song
TTITLE6=Lowdown
TTITLE7=Mossy Lea
TTITLE8=35 Years Later
TTITLE9=Last Thing (For Ed K)
EXTD=YEAR: 2017
EXTT0=
EXTT1=
EXTT2=
EXTT3=
EXTT4=
EXTT5=
EXTT6=
EXTT7=
EXTT8=
EXTT9=
PLAYORDER=
